<mxfile host="app.diagrams.net" agent="Mozilla/5.0 (Windows NT 10.0; Win64; x64) AppleWebKit/537.36 (KHTML, like Gecko) Chrome/127.0.0.0 Safari/537.36" version="24.7.6">
  <diagram id="C5RBs43oDa-KdzZeNtuy" name="Page-1">
    <mxGraphModel dx="1050" dy="569" grid="1" gridSize="10" guides="1" tooltips="1" connect="1" arrows="1" fold="1" page="1" pageScale="1" pageWidth="827" pageHeight="1169" math="0" shadow="0">
      <root>
        <mxCell id="WIyWlLk6GJQsqaUBKTNV-0" />
        <mxCell id="WIyWlLk6GJQsqaUBKTNV-1" parent="WIyWlLk6GJQsqaUBKTNV-0" />
        <mxCell id="706b4MzArVGDcZyyfqEb-2" value="" style="edgeStyle=orthogonalEdgeStyle;rounded=0;orthogonalLoop=1;jettySize=auto;html=1;" edge="1" parent="WIyWlLk6GJQsqaUBKTNV-1" source="706b4MzArVGDcZyyfqEb-0" target="706b4MzArVGDcZyyfqEb-1">
          <mxGeometry relative="1" as="geometry" />
        </mxCell>
        <mxCell id="706b4MzArVGDcZyyfqEb-0" value="&lt;font style=&quot;vertical-align: inherit;&quot;&gt;&lt;font style=&quot;vertical-align: inherit;&quot;&gt;Inicio&lt;/font&gt;&lt;/font&gt;" style="ellipse;whiteSpace=wrap;html=1;aspect=fixed;" vertex="1" parent="WIyWlLk6GJQsqaUBKTNV-1">
          <mxGeometry x="360" y="40" width="80" height="80" as="geometry" />
        </mxCell>
        <mxCell id="706b4MzArVGDcZyyfqEb-4" value="" style="edgeStyle=orthogonalEdgeStyle;rounded=0;orthogonalLoop=1;jettySize=auto;html=1;" edge="1" parent="WIyWlLk6GJQsqaUBKTNV-1" source="706b4MzArVGDcZyyfqEb-1" target="706b4MzArVGDcZyyfqEb-3">
          <mxGeometry relative="1" as="geometry" />
        </mxCell>
        <mxCell id="706b4MzArVGDcZyyfqEb-1" value="&lt;div&gt;&lt;font style=&quot;vertical-align: inherit;&quot;&gt;&lt;font style=&quot;vertical-align: inherit;&quot;&gt;Definir tipo_cambio_eur_a_mxn = 20.93&lt;/font&gt;&lt;/font&gt;&lt;/div&gt;&lt;div&gt;&lt;font style=&quot;vertical-align: inherit;&quot;&gt;&lt;font style=&quot;vertical-align: inherit;&quot;&gt;&amp;nbsp; &amp;nbsp; Definir tipo_cambio_usd_a_mxn = 19.18&lt;/font&gt;&lt;/font&gt;&lt;/div&gt;" style="whiteSpace=wrap;html=1;fillColor=#dae8fc;strokeColor=#6c8ebf;" vertex="1" parent="WIyWlLk6GJQsqaUBKTNV-1">
          <mxGeometry x="285" y="160" width="230" height="110" as="geometry" />
        </mxCell>
        <mxCell id="706b4MzArVGDcZyyfqEb-8" value="" style="edgeStyle=orthogonalEdgeStyle;rounded=0;orthogonalLoop=1;jettySize=auto;html=1;" edge="1" parent="WIyWlLk6GJQsqaUBKTNV-1" source="706b4MzArVGDcZyyfqEb-3" target="706b4MzArVGDcZyyfqEb-7">
          <mxGeometry relative="1" as="geometry" />
        </mxCell>
        <mxCell id="706b4MzArVGDcZyyfqEb-3" value="&quot;Ingrese la moneda origen para la conversi贸n (EUR/USD): &quot;" style="shape=parallelogram;perimeter=parallelogramPerimeter;whiteSpace=wrap;html=1;fixedSize=1;fillColor=#fff2cc;strokeColor=#d6b656;" vertex="1" parent="WIyWlLk6GJQsqaUBKTNV-1">
          <mxGeometry x="285" y="320" width="230" height="95" as="geometry" />
        </mxCell>
        <mxCell id="706b4MzArVGDcZyyfqEb-10" value="" style="edgeStyle=orthogonalEdgeStyle;rounded=0;orthogonalLoop=1;jettySize=auto;html=1;" edge="1" parent="WIyWlLk6GJQsqaUBKTNV-1" source="706b4MzArVGDcZyyfqEb-7" target="706b4MzArVGDcZyyfqEb-9">
          <mxGeometry relative="1" as="geometry" />
        </mxCell>
        <mxCell id="706b4MzArVGDcZyyfqEb-7" value="&quot;Ingrese el monto a convertir: &quot;" style="shape=parallelogram;perimeter=parallelogramPerimeter;whiteSpace=wrap;html=1;fixedSize=1;fillColor=#fff2cc;strokeColor=#d6b656;" vertex="1" parent="WIyWlLk6GJQsqaUBKTNV-1">
          <mxGeometry x="290" y="460" width="220" height="77.5" as="geometry" />
        </mxCell>
        <mxCell id="706b4MzArVGDcZyyfqEb-13" value="" style="edgeStyle=orthogonalEdgeStyle;rounded=0;orthogonalLoop=1;jettySize=auto;html=1;" edge="1" parent="WIyWlLk6GJQsqaUBKTNV-1" source="706b4MzArVGDcZyyfqEb-9" target="706b4MzArVGDcZyyfqEb-12">
          <mxGeometry relative="1" as="geometry" />
        </mxCell>
        <mxCell id="706b4MzArVGDcZyyfqEb-9" value="Si tipo_conversion == &quot;EUR&quot;" style="rhombus;whiteSpace=wrap;html=1;" vertex="1" parent="WIyWlLk6GJQsqaUBKTNV-1">
          <mxGeometry x="312.5" y="584.5" width="175" height="153.75" as="geometry" />
        </mxCell>
        <mxCell id="706b4MzArVGDcZyyfqEb-15" value="" style="edgeStyle=orthogonalEdgeStyle;rounded=0;orthogonalLoop=1;jettySize=auto;html=1;" edge="1" parent="WIyWlLk6GJQsqaUBKTNV-1" source="706b4MzArVGDcZyyfqEb-12" target="706b4MzArVGDcZyyfqEb-14">
          <mxGeometry relative="1" as="geometry" />
        </mxCell>
        <mxCell id="706b4MzArVGDcZyyfqEb-12" value="Calcular resultado = monto_a_convertir * tipo_cambio_eur_a_mxn" style="whiteSpace=wrap;html=1;" vertex="1" parent="WIyWlLk6GJQsqaUBKTNV-1">
          <mxGeometry x="560" y="627.06" width="165" height="68.63" as="geometry" />
        </mxCell>
        <mxCell id="706b4MzArVGDcZyyfqEb-14" value="&quot;El resultado de la conversi贸n de EUR a MXN es: &quot;, Pesos" style="shape=parallelogram;perimeter=parallelogramPerimeter;whiteSpace=wrap;html=1;fixedSize=1;" vertex="1" parent="WIyWlLk6GJQsqaUBKTNV-1">
          <mxGeometry x="800" y="632.06" width="202.5" height="58.63" as="geometry" />
        </mxCell>
        <mxCell id="706b4MzArVGDcZyyfqEb-16" value="Si" style="text;html=1;align=center;verticalAlign=middle;whiteSpace=wrap;rounded=0;" vertex="1" parent="WIyWlLk6GJQsqaUBKTNV-1">
          <mxGeometry x="490" y="632.06" width="60" height="30" as="geometry" />
        </mxCell>
        <mxCell id="706b4MzArVGDcZyyfqEb-19" value="" style="edgeStyle=orthogonalEdgeStyle;rounded=0;orthogonalLoop=1;jettySize=auto;html=1;" edge="1" parent="WIyWlLk6GJQsqaUBKTNV-1" source="706b4MzArVGDcZyyfqEb-20" target="706b4MzArVGDcZyyfqEb-22">
          <mxGeometry relative="1" as="geometry" />
        </mxCell>
        <mxCell id="706b4MzArVGDcZyyfqEb-26" value="" style="edgeStyle=orthogonalEdgeStyle;rounded=0;orthogonalLoop=1;jettySize=auto;html=1;" edge="1" parent="WIyWlLk6GJQsqaUBKTNV-1" source="706b4MzArVGDcZyyfqEb-20" target="706b4MzArVGDcZyyfqEb-25">
          <mxGeometry relative="1" as="geometry" />
        </mxCell>
        <mxCell id="706b4MzArVGDcZyyfqEb-20" value="Si tipo_conversion == &quot;EUR&quot;" style="rhombus;whiteSpace=wrap;html=1;fillColor=#d5e8d4;strokeColor=#82b366;" vertex="1" parent="WIyWlLk6GJQsqaUBKTNV-1">
          <mxGeometry x="312.5" y="584.5" width="175" height="153.75" as="geometry" />
        </mxCell>
        <mxCell id="706b4MzArVGDcZyyfqEb-21" value="" style="edgeStyle=orthogonalEdgeStyle;rounded=0;orthogonalLoop=1;jettySize=auto;html=1;" edge="1" parent="WIyWlLk6GJQsqaUBKTNV-1" source="706b4MzArVGDcZyyfqEb-22" target="706b4MzArVGDcZyyfqEb-23">
          <mxGeometry relative="1" as="geometry" />
        </mxCell>
        <mxCell id="706b4MzArVGDcZyyfqEb-22" value="Calcular resultado = monto_a_convertir * tipo_cambio_eur_a_mxn" style="whiteSpace=wrap;html=1;fillColor=#dae8fc;strokeColor=#6c8ebf;" vertex="1" parent="WIyWlLk6GJQsqaUBKTNV-1">
          <mxGeometry x="560" y="627.06" width="165" height="68.63" as="geometry" />
        </mxCell>
        <mxCell id="706b4MzArVGDcZyyfqEb-23" value="&quot;El resultado de la conversi贸n de EUR a MXN es: &quot;, resultado" style="shape=parallelogram;perimeter=parallelogramPerimeter;whiteSpace=wrap;html=1;fixedSize=1;fillColor=#fff2cc;strokeColor=#d6b656;" vertex="1" parent="WIyWlLk6GJQsqaUBKTNV-1">
          <mxGeometry x="800" y="632.06" width="202.5" height="58.63" as="geometry" />
        </mxCell>
        <mxCell id="706b4MzArVGDcZyyfqEb-24" value="Si" style="text;html=1;align=center;verticalAlign=middle;whiteSpace=wrap;rounded=0;" vertex="1" parent="WIyWlLk6GJQsqaUBKTNV-1">
          <mxGeometry x="490" y="632.06" width="60" height="30" as="geometry" />
        </mxCell>
        <mxCell id="706b4MzArVGDcZyyfqEb-28" value="" style="edgeStyle=orthogonalEdgeStyle;rounded=0;orthogonalLoop=1;jettySize=auto;html=1;" edge="1" parent="WIyWlLk6GJQsqaUBKTNV-1" source="706b4MzArVGDcZyyfqEb-25" target="706b4MzArVGDcZyyfqEb-27">
          <mxGeometry relative="1" as="geometry" />
        </mxCell>
        <mxCell id="706b4MzArVGDcZyyfqEb-34" value="" style="edgeStyle=orthogonalEdgeStyle;rounded=0;orthogonalLoop=1;jettySize=auto;html=1;" edge="1" parent="WIyWlLk6GJQsqaUBKTNV-1" source="706b4MzArVGDcZyyfqEb-25" target="706b4MzArVGDcZyyfqEb-33">
          <mxGeometry relative="1" as="geometry" />
        </mxCell>
        <mxCell id="706b4MzArVGDcZyyfqEb-25" value="Sino si tipo_conversion == &quot;USD&quot;" style="rhombus;whiteSpace=wrap;html=1;fillColor=#d5e8d4;strokeColor=#82b366;" vertex="1" parent="WIyWlLk6GJQsqaUBKTNV-1">
          <mxGeometry x="315" y="790" width="170" height="140" as="geometry" />
        </mxCell>
        <mxCell id="706b4MzArVGDcZyyfqEb-30" value="" style="edgeStyle=orthogonalEdgeStyle;rounded=0;orthogonalLoop=1;jettySize=auto;html=1;" edge="1" parent="WIyWlLk6GJQsqaUBKTNV-1" source="706b4MzArVGDcZyyfqEb-27" target="706b4MzArVGDcZyyfqEb-29">
          <mxGeometry relative="1" as="geometry" />
        </mxCell>
        <mxCell id="706b4MzArVGDcZyyfqEb-27" value="Calcular resultado = monto_a_convertir * tipo_cambio_usd_a_mxn" style="whiteSpace=wrap;html=1;fillColor=#dae8fc;strokeColor=#6c8ebf;" vertex="1" parent="WIyWlLk6GJQsqaUBKTNV-1">
          <mxGeometry x="560" y="830" width="160" height="60" as="geometry" />
        </mxCell>
        <mxCell id="706b4MzArVGDcZyyfqEb-29" value="&quot;El resultado de la conversi贸n de USD a MXN es: &quot;, Pesos" style="shape=parallelogram;perimeter=parallelogramPerimeter;whiteSpace=wrap;html=1;fixedSize=1;fillColor=#fff2cc;strokeColor=#d6b656;" vertex="1" parent="WIyWlLk6GJQsqaUBKTNV-1">
          <mxGeometry x="800" y="830" width="200" height="60" as="geometry" />
        </mxCell>
        <mxCell id="706b4MzArVGDcZyyfqEb-31" value="Si" style="text;html=1;align=center;verticalAlign=middle;whiteSpace=wrap;rounded=0;" vertex="1" parent="WIyWlLk6GJQsqaUBKTNV-1">
          <mxGeometry x="490" y="830" width="60" height="30" as="geometry" />
        </mxCell>
        <mxCell id="706b4MzArVGDcZyyfqEb-32" value="No" style="text;html=1;align=center;verticalAlign=middle;whiteSpace=wrap;rounded=0;" vertex="1" parent="WIyWlLk6GJQsqaUBKTNV-1">
          <mxGeometry x="400" y="750" width="60" height="30" as="geometry" />
        </mxCell>
        <mxCell id="706b4MzArVGDcZyyfqEb-37" value="" style="edgeStyle=orthogonalEdgeStyle;rounded=0;orthogonalLoop=1;jettySize=auto;html=1;" edge="1" parent="WIyWlLk6GJQsqaUBKTNV-1" source="706b4MzArVGDcZyyfqEb-33" target="706b4MzArVGDcZyyfqEb-36">
          <mxGeometry relative="1" as="geometry" />
        </mxCell>
        <mxCell id="706b4MzArVGDcZyyfqEb-33" value="&quot;No est谩 disponible este tipo de conversi贸n actualmente&quot;" style="shape=parallelogram;perimeter=parallelogramPerimeter;whiteSpace=wrap;html=1;fixedSize=1;fillColor=#fff2cc;strokeColor=#d6b656;" vertex="1" parent="WIyWlLk6GJQsqaUBKTNV-1">
          <mxGeometry x="315" y="990" width="170" height="90" as="geometry" />
        </mxCell>
        <mxCell id="706b4MzArVGDcZyyfqEb-35" value="No" style="text;html=1;align=center;verticalAlign=middle;whiteSpace=wrap;rounded=0;" vertex="1" parent="WIyWlLk6GJQsqaUBKTNV-1">
          <mxGeometry x="400" y="940" width="60" height="30" as="geometry" />
        </mxCell>
        <mxCell id="706b4MzArVGDcZyyfqEb-36" value="Fin" style="ellipse;whiteSpace=wrap;html=1;" vertex="1" parent="WIyWlLk6GJQsqaUBKTNV-1">
          <mxGeometry x="360" y="1150" width="80" height="80" as="geometry" />
        </mxCell>
        <mxCell id="706b4MzArVGDcZyyfqEb-39" value="" style="endArrow=classic;html=1;rounded=0;exitX=1;exitY=0.5;exitDx=0;exitDy=0;entryX=1;entryY=0.5;entryDx=0;entryDy=0;" edge="1" parent="WIyWlLk6GJQsqaUBKTNV-1" source="706b4MzArVGDcZyyfqEb-23" target="706b4MzArVGDcZyyfqEb-36">
          <mxGeometry width="50" height="50" relative="1" as="geometry">
            <mxPoint x="580" y="820" as="sourcePoint" />
            <mxPoint x="1080" y="1220" as="targetPoint" />
            <Array as="points">
              <mxPoint x="1080" y="661" />
              <mxPoint x="1080" y="1190" />
            </Array>
          </mxGeometry>
        </mxCell>
        <mxCell id="706b4MzArVGDcZyyfqEb-45" value="" style="endArrow=none;html=1;rounded=0;" edge="1" parent="WIyWlLk6GJQsqaUBKTNV-1">
          <mxGeometry width="50" height="50" relative="1" as="geometry">
            <mxPoint x="990" y="860" as="sourcePoint" />
            <mxPoint x="1080" y="860" as="targetPoint" />
          </mxGeometry>
        </mxCell>
      </root>
    </mxGraphModel>
  </diagram>
</mxfile>
